<svg width="14" height="13" viewBox="0 0 14 13" fill="none" xmlns="http://www.w3.org/2000/svg">
<path d="M0.618119 2.15966C0.541689 2.09457 0.5 2.01765 0.5 1.9289V0.355012C0.5 0.254425 0.541689 0.171589 0.618119 0.100587C0.694548 0.0355012 0.791823 0 0.889097 0H13.1109C13.2151 0 13.3055 0.0355012 13.3819 0.100587C13.4583 0.171589 13.5 0.254425 13.5 0.349095V1.9289C13.5 2.01765 13.4653 2.09457 13.3888 2.15966C13.3124 2.23066 13.2221 2.26024 13.104 2.26024H0.889097C0.791823 2.26616 0.701497 2.23066 0.618119 2.15966ZM5.65553 12.9047C5.5791 12.8396 5.53741 12.7568 5.53741 12.6739V5.76895C5.53741 5.66836 5.5791 5.59144 5.65553 5.52636C5.73196 5.46719 5.82924 5.43169 5.92651 5.43169H11.089C11.2071 5.43169 11.3044 5.46719 11.3808 5.53227C11.4572 5.60328 11.4989 5.68019 11.4989 5.76303V7.50851C11.4989 7.60909 11.4572 7.69193 11.3808 7.75702C11.3044 7.82802 11.2002 7.8576 11.089 7.8576H8.88642C8.7822 7.8576 8.69188 7.88719 8.61545 7.95227C8.53902 8.01736 8.49733 8.09428 8.49733 8.19486V12.668C8.49733 12.7568 8.45564 12.8337 8.37921 12.8988C8.30278 12.9639 8.19856 12.9994 8.08739 12.9994H5.93346C5.82229 13.0053 5.73196 12.9698 5.65553 12.9047Z" fill="#A8BFFF"/>
</svg>
