<svg width="38" height="39" viewBox="0 0 38 39" fill="none" xmlns="http://www.w3.org/2000/svg">
<path d="M0.34527 6.47897C0.12186 6.28371 0 6.05296 0 5.7867V1.06504C0 0.763276 0.12186 0.514768 0.34527 0.30176C0.56868 0.106504 0.85302 0 1.13736 0H36.8626C37.1673 0 37.4313 0.106504 37.6547 0.30176C37.8781 0.514768 38 0.763276 38 1.04729V5.7867C38 6.05296 37.8984 6.28371 37.675 6.47897C37.4516 6.69198 37.1876 6.78073 36.8423 6.78073H1.13736C0.85302 6.79848 0.58899 6.69198 0.34527 6.47897ZM15.07 38.7141C14.8466 38.5188 14.7247 38.2703 14.7247 38.0218V17.3068C14.7247 17.0051 14.8466 16.7743 15.07 16.5791C15.2934 16.4016 15.5778 16.2951 15.8621 16.2951H30.9524C31.2977 16.2951 31.582 16.4016 31.8055 16.5968C32.0289 16.8098 32.1507 17.0406 32.1507 17.2891V22.5255C32.1507 22.8273 32.0289 23.0758 31.8055 23.271C31.582 23.4841 31.2774 23.5728 30.9524 23.5728H24.5142C24.2095 23.5728 23.9455 23.6616 23.7221 23.8568C23.4987 24.0521 23.3768 24.2828 23.3768 24.5846V38.004C23.3768 38.2703 23.2549 38.5011 23.0315 38.6963C22.8081 38.8916 22.5035 38.9981 22.1785 38.9981H15.8824C15.5575 39.0158 15.2934 38.9093 15.07 38.7141Z" fill="url(#paint0_linear_610_853)"/>
<defs>
<linearGradient id="paint0_linear_610_853" x1="4.67692" y1="9.75" x2="34.5408" y2="14.2266" gradientUnits="userSpaceOnUse">
<stop stop-color="#E8A3FF"/>
<stop offset="0.197917" stop-color="#A8BFFF"/>
<stop offset="0.375" stop-color="#2EFCA8"/>
<stop offset="0.744792" stop-color="#A8BFFF"/>
<stop offset="0.932292" stop-color="#E8A3FF"/>
</linearGradient>
</defs>
</svg>
